<svg width="300" height="300" viewBox="0 0 300 300" fill="none" xmlns="http://www.w3.org/2000/svg">
<path d="M300 150C300 232.843 232.843 300 150 300C67.1573 300 0 232.843 0 150C0 67.1573 67.1573 0 150 0C232.843 0 300 67.1573 300 150Z" fill="white"/>
<path d="M129.167 260.636L120.839 187.545C117.903 174.143 110.407 163.541 97.6591 156.625C78.4298 146.192 57.4551 140.109 37.0631 132.589C30.5911 130.203 30.6604 135.621 30.3698 139.311C29.0444 156.123 31.3138 172.475 36.6644 188.521C38.7324 194.725 42.1938 196.692 48.4471 196.415L89.8791 197.027C96.5058 197.415 99.2164 198.528 100.31 199.475C100.551 199.941 100.778 200.451 100.99 201.001L102.659 253.109C103.971 261.023 108.44 261.876 123.647 264.772C123.864 264.813 124.082 264.868 124.298 264.924C128.018 265.876 129.706 264.928 129.167 260.636Z" fill="#72CAF2"/>
<path d="M170.189 260.636L178.517 187.545C181.453 174.143 188.949 163.541 201.697 156.625C220.927 146.192 241.901 140.109 262.293 132.589C268.765 130.203 268.696 135.621 268.987 139.311C270.312 156.123 268.043 172.475 262.692 188.521C260.624 194.725 257.163 196.692 250.909 196.415L209.477 197.027C202.851 197.415 200.14 198.528 199.047 199.475C198.805 199.941 198.579 200.451 198.367 201.001L196.697 253.109C195.385 261.023 190.916 261.876 175.709 264.772C175.492 264.813 175.275 264.868 175.059 264.924C171.339 265.876 169.651 264.928 170.189 260.636Z" fill="#72CAF2"/>
<path d="M258.284 96.8065C258.031 94.5905 256.17 94.1505 254.336 94.0065C252.571 93.8692 250.79 93.8665 249.015 93.8652C234.586 93.8572 220.154 93.8719 205.724 93.8625C195.206 93.8545 195.198 93.8412 195.19 83.0145C195.178 68.3625 194.954 53.7052 195.291 39.0612C195.427 33.1319 193.074 30.1665 187.626 28.4265C161.66 20.1385 135.823 19.5199 109.872 28.6065C104.807 30.3812 102.968 33.0999 103.044 38.3345C103.274 53.8705 103.143 69.4132 103.103 84.9519C103.082 93.5092 102.74 93.8199 93.9737 93.8572C86.4244 93.8892 78.8777 93.8625 71.3284 93.8625V93.8999C62.6724 93.8999 54.0137 93.8639 45.3577 93.9279C43.4124 93.9425 41.0137 93.7572 40.3497 96.2065C39.6737 98.6959 41.9017 99.6985 43.5804 100.645C66.7577 113.716 89.6284 127.491 114.716 136.685C118.728 138.155 122.759 139.56 126.824 140.769L108.51 102.756L126.772 96.4132L138.076 143.471C140.458 143.888 142.856 144.191 145.272 144.363L139.598 86.9892H158.931L152.312 144.452C154.708 144.343 157.126 144.084 159.567 143.644L170.912 96.4132L189.175 102.756L170.875 140.739C181.194 137.669 191.206 133.848 201.008 129.371C219.803 120.788 237.552 110.247 255.574 100.216C256.938 99.4572 258.496 98.6532 258.284 96.8065Z" fill="#ED1C24"/>
</svg>
