<svg width="712" height="244" viewBox="0 0 712 244" fill="none" xmlns="http://www.w3.org/2000/svg">
<path d="M99.1671 238.636L90.8391 165.545C87.9031 152.143 80.4071 141.541 67.6591 134.625C48.4298 124.192 27.4551 118.109 7.06309 110.589C0.591092 108.203 0.66043 113.621 0.369763 117.311C-0.95557 134.123 1.31376 150.475 6.66443 166.521C8.73243 172.725 12.1938 174.692 18.4471 174.415L59.8791 175.027C66.5058 175.415 69.2164 176.528 70.3098 177.475C70.5511 177.941 70.7778 178.451 70.9898 179.001L72.6591 231.109C73.9711 239.023 78.4404 239.876 93.6471 242.772C93.8644 242.813 94.0818 242.868 94.2978 242.924C98.0178 243.876 99.7058 242.928 99.1671 238.636Z" fill="#72CAF2"/>
<path d="M140.189 238.636L148.517 165.545C151.453 152.143 158.949 141.541 171.697 134.625C190.927 124.192 211.901 118.109 232.293 110.589C238.765 108.203 238.696 113.621 238.987 117.311C240.312 134.123 238.043 150.475 232.692 166.521C230.624 172.725 227.163 174.692 220.909 174.415L179.477 175.027C172.851 175.415 170.14 176.528 169.047 177.475C168.805 177.941 168.579 178.451 168.367 179.001L166.697 231.109C165.385 239.023 160.916 239.876 145.709 242.772C145.492 242.813 145.275 242.868 145.059 242.924C141.339 243.876 139.651 242.928 140.189 238.636Z" fill="#72CAF2"/>
<path d="M309.616 134.522C312.388 134.522 314.653 134.172 316.413 133.466C318.172 132.764 319.548 131.853 320.541 130.736C321.535 129.618 322.217 128.356 322.589 126.948C322.963 125.542 323.148 124.114 323.148 122.665C323.148 121.01 322.932 119.52 322.497 118.194C322.063 116.87 321.317 115.753 320.261 114.842C319.207 113.933 317.811 113.228 316.072 112.732C314.333 112.236 312.14 111.986 309.491 111.986H294.84V134.522H309.616ZM294.84 75.6062V97.9569H305.765C308.084 97.9569 310.175 97.7915 312.036 97.4595C313.899 97.1289 315.481 96.5502 316.785 95.7209C318.089 94.8942 319.083 93.7555 319.765 92.3062C320.448 90.8582 320.791 89.0382 320.791 86.8435C320.791 84.6915 320.521 82.9022 319.983 81.4729C319.444 80.0462 318.617 78.8969 317.5 78.0275C316.381 77.1595 314.964 76.5382 313.248 76.1649C311.529 75.7929 309.491 75.6062 307.132 75.6062H294.84ZM307.132 59.9009C313.381 59.9009 318.699 60.4809 323.088 61.6382C327.475 62.7982 331.053 64.4329 333.827 66.5435C336.599 68.6542 338.617 71.2195 339.88 74.2409C341.143 77.2622 341.773 80.6355 341.773 84.3595C341.773 86.3889 341.483 88.3449 340.905 90.2275C340.324 92.1102 339.415 93.8689 338.173 95.5035C336.931 97.1395 335.337 98.6395 333.392 100.005C331.447 101.37 329.109 102.55 326.377 103.544C332.337 104.993 336.745 107.33 339.6 110.558C342.456 113.788 343.884 117.968 343.884 123.1C343.884 126.948 343.14 130.529 341.649 133.84C340.159 137.152 337.976 140.038 335.1 142.5C332.223 144.962 328.675 146.886 324.453 148.273C320.232 149.661 315.409 150.353 309.988 150.353H273.857V59.9009H307.132Z" fill="#414142"/>
<path d="M390.507 102.426C393.364 102.426 395.794 102.064 397.803 101.34C399.81 100.616 401.454 99.6124 402.738 98.3284C404.02 97.0457 404.951 95.5457 405.532 93.8271C406.11 92.1111 406.4 90.2577 406.4 88.2711C406.4 84.2977 405.106 81.1937 402.52 78.9591C399.932 76.7244 395.928 75.6071 390.507 75.6071H382.064V102.426H390.507ZM435.083 150.352H416.086C412.567 150.352 410.042 149.028 408.511 146.379L393.487 120.119C392.783 119.002 391.998 118.184 391.128 117.667C390.259 117.15 389.018 116.891 387.403 116.891H382.064V150.352H361.082V59.9004H390.507C397.046 59.9004 402.623 60.5737 407.239 61.9177C411.854 63.263 415.619 65.1364 418.536 67.5364C421.455 69.9364 423.576 72.7724 424.9 76.0417C426.224 79.311 426.887 82.8697 426.887 86.7191C426.887 89.6591 426.492 92.4311 425.707 95.0377C424.922 97.6457 423.762 100.058 422.231 102.271C420.7 104.486 418.807 106.462 416.55 108.2C414.295 109.938 411.698 111.366 408.759 112.483C410.126 113.187 411.408 114.066 412.608 115.122C413.808 116.176 414.884 117.428 415.836 118.878L435.083 150.352Z" fill="#414142"/>
<path d="M494.616 115.773L486.236 91.0026C485.615 89.4306 484.952 87.5786 484.25 85.4466C483.544 83.3159 482.842 81.0079 482.139 78.5239C481.518 81.0492 480.855 83.3879 480.151 85.5399C479.447 87.6919 478.786 89.5546 478.164 91.1266L469.846 115.773H494.616ZM527.955 150.353H511.69C509.867 150.353 508.399 149.929 507.282 149.08C506.163 148.232 505.315 147.145 504.736 145.821L499.396 130.052H465.003L459.664 145.821C459.208 146.98 458.392 148.024 457.212 148.956C456.034 149.887 454.574 150.353 452.835 150.353H436.446L471.46 59.8999H492.94L527.955 150.353Z" fill="#414142"/>
<path d="M612.758 59.9004L576.502 150.352H557.506L521.249 59.9004H538.136C539.956 59.9004 541.426 60.3244 542.544 61.1737C543.661 62.0217 544.508 63.1084 545.089 64.4324L562.596 112.855C563.424 114.966 564.23 117.274 565.017 119.778C565.802 122.283 566.548 124.9 567.252 127.631C567.832 124.9 568.484 122.283 569.208 119.778C569.932 117.274 570.708 114.966 571.536 112.855L588.918 64.4324C589.373 63.2737 590.19 62.2284 591.37 61.2964C592.55 60.3657 594.009 59.9004 595.748 59.9004H612.758Z" fill="#414142"/>
<path d="M688.002 105.095C688.002 100.625 687.422 96.6008 686.263 93.0208C685.105 89.4408 683.439 86.4088 681.266 83.9262C679.093 81.4422 676.434 79.5395 673.289 78.2142C670.142 76.8902 666.563 76.2275 662.549 76.2275C658.493 76.2275 654.882 76.8902 651.715 78.2142C648.55 79.5395 645.879 81.4422 643.707 83.9262C641.534 86.4088 639.867 89.4408 638.709 93.0208C637.55 96.6008 636.971 100.625 636.971 105.095C636.971 109.606 637.55 113.653 638.709 117.233C639.867 120.813 641.534 123.845 643.707 126.327C645.879 128.81 648.55 130.703 651.715 132.007C654.882 133.311 658.493 133.963 662.549 133.963C666.563 133.963 670.142 133.311 673.289 132.007C676.434 130.703 679.093 128.81 681.266 126.327C683.439 123.845 685.105 120.813 686.263 117.233C687.422 113.653 688.002 109.606 688.002 105.095ZM709.482 105.095C709.482 111.635 708.355 117.719 706.099 123.347C703.843 128.977 700.667 133.87 696.57 138.03C692.473 142.189 687.537 145.449 681.763 147.807C675.989 150.166 669.585 151.346 662.549 151.346C655.513 151.346 649.097 150.166 643.305 147.807C637.509 145.449 632.553 142.189 628.435 138.03C624.315 133.87 621.13 128.977 618.874 123.347C616.618 117.719 615.491 111.635 615.491 105.095C615.491 98.5568 616.618 92.4728 618.874 86.8435C621.13 81.2155 624.315 76.3315 628.435 72.1915C632.553 68.0542 637.509 64.8048 643.305 62.4448C649.097 60.0862 655.513 58.9062 662.549 58.9062C669.585 58.9062 675.989 60.0968 681.763 62.4768C687.537 64.8568 692.473 68.1168 696.57 72.2542C700.667 76.3928 703.843 81.2768 706.099 86.9048C708.355 92.5342 709.482 98.5982 709.482 105.095Z" fill="#414142"/>
<path d="M300.395 163.73V188.9H295.247V174.423C295.247 174.09 295.256 173.727 295.272 173.335C295.291 172.943 295.322 172.546 295.367 172.143L288.683 185.083C288.476 185.486 288.196 185.791 287.844 185.998C287.492 186.204 287.092 186.31 286.644 186.31H285.85C285.4 186.31 284.999 186.204 284.648 185.998C284.298 185.791 284.018 185.486 283.811 185.083L277.126 172.108C277.159 172.523 277.188 172.928 277.211 173.326C277.235 173.724 277.247 174.09 277.247 174.423V188.9H272.098V163.73H276.555C276.808 163.73 277.031 163.735 277.22 163.747C277.411 163.758 277.58 163.792 277.73 163.851C277.879 163.908 278.015 163.998 278.136 164.119C278.256 164.239 278.374 164.41 278.49 164.628L284.968 177.395C285.199 177.832 285.42 178.287 285.634 178.759C285.847 179.231 286.05 179.715 286.247 180.211C286.442 179.703 286.646 179.208 286.86 178.726C287.074 178.242 287.3 177.78 287.542 177.343L294.003 164.628C294.118 164.41 294.236 164.239 294.358 164.119C294.479 163.998 294.614 163.908 294.763 163.851C294.914 163.792 295.083 163.758 295.272 163.747C295.463 163.735 295.684 163.73 295.938 163.73H300.395Z" fill="#414142"/>
<path d="M312.282 168.221V174.095H320.194V178.415H312.282V184.409H322.612V188.9H306.408V163.729H322.612V168.221H312.282Z" fill="#414142"/>
<path d="M344.206 176.307C344.206 175.063 344.045 173.94 343.723 172.937C343.401 171.936 342.937 171.087 342.331 170.389C341.727 169.693 340.987 169.157 340.113 168.783C339.235 168.409 338.239 168.221 337.123 168.221H333.219V184.409H337.123C338.239 184.409 339.235 184.221 340.113 183.847C340.987 183.473 341.727 182.937 342.331 182.241C342.937 181.544 343.401 180.695 343.723 179.693C344.045 178.691 344.206 177.561 344.206 176.307ZM350.183 176.307C350.183 178.127 349.87 179.805 349.242 181.343C348.614 182.88 347.731 184.211 346.59 185.333C345.45 186.456 344.075 187.332 342.47 187.959C340.863 188.587 339.081 188.9 337.123 188.9H327.345V163.729H337.123C339.081 163.729 340.863 164.047 342.47 164.68C344.075 165.313 345.45 166.189 346.59 167.307C347.731 168.423 348.614 169.751 349.242 171.288C349.87 172.825 350.183 174.499 350.183 176.307Z" fill="#414142"/>
<path d="M360.652 188.9H354.779V163.73H360.652V188.9Z" fill="#414142"/>
<path d="M383.629 182.387C383.768 182.387 383.905 182.414 384.044 182.466C384.181 182.517 384.314 182.606 384.44 182.733L386.756 185.169C385.742 186.494 384.472 187.493 382.946 188.166C381.42 188.839 379.614 189.177 377.53 189.177C375.618 189.177 373.905 188.851 372.39 188.201C370.877 187.55 369.593 186.651 368.538 185.506C367.485 184.359 366.674 183.001 366.11 181.429C365.546 179.857 365.265 178.149 365.265 176.306C365.265 174.429 365.569 172.705 366.18 171.133C366.79 169.561 367.649 168.205 368.754 167.063C369.86 165.923 371.184 165.037 372.728 164.403C374.27 163.77 375.969 163.453 377.824 163.453C378.768 163.453 379.657 163.537 380.493 163.703C381.328 163.871 382.108 164.101 382.833 164.395C383.56 164.689 384.226 165.043 384.837 165.458C385.448 165.871 385.99 166.321 386.462 166.805L384.492 169.447C384.366 169.61 384.216 169.757 384.044 169.889C383.87 170.021 383.629 170.087 383.318 170.087C383.11 170.087 382.914 170.042 382.73 169.949C382.546 169.857 382.35 169.745 382.144 169.611C381.934 169.479 381.709 169.335 381.461 169.181C381.213 169.025 380.92 168.881 380.58 168.749C380.24 168.615 379.842 168.503 379.386 168.411C378.933 168.319 378.4 168.274 377.789 168.274C376.822 168.274 375.937 168.451 375.138 168.809C374.337 169.166 373.646 169.687 373.064 170.373C372.484 171.058 372.034 171.898 371.717 172.894C371.4 173.89 371.242 175.027 371.242 176.306C371.242 177.597 371.417 178.742 371.768 179.745C372.12 180.746 372.598 181.59 373.204 182.275C373.808 182.961 374.513 183.482 375.32 183.838C376.125 184.195 376.989 184.374 377.91 184.374C378.44 184.374 378.924 184.349 379.361 184.297C379.8 184.245 380.209 184.158 380.588 184.037C380.968 183.917 381.324 183.755 381.658 183.554C381.993 183.353 382.333 183.095 382.678 182.785C382.817 182.67 382.966 182.575 383.128 182.499C383.289 182.425 383.456 182.387 383.629 182.387Z" fill="#414142"/>
<path d="M403.754 179.278L401.422 172.385C401.249 171.947 401.064 171.433 400.869 170.838C400.673 170.246 400.477 169.603 400.282 168.913C400.109 169.615 399.925 170.266 399.728 170.865C399.533 171.463 399.349 171.982 399.176 172.419L396.861 179.278H403.754ZM413.032 188.901H408.505C407.998 188.901 407.589 188.782 407.278 188.546C406.968 188.31 406.73 188.007 406.569 187.639L405.084 183.251H395.513L394.028 187.639C393.901 187.962 393.673 188.253 393.345 188.511C393.017 188.771 392.612 188.901 392.128 188.901H387.566L397.31 163.73H403.288L413.032 188.901Z" fill="#414142"/>
<path d="M431.327 184.236V188.901H416.159V163.73H421.998V184.236H431.327Z" fill="#414142"/>
<path d="M460.556 168.359H453.474V188.901H447.635V168.359H440.551V163.73H460.556V168.359Z" fill="#414142"/>
<path d="M472.84 175.564C473.635 175.564 474.311 175.462 474.87 175.261C475.427 175.06 475.886 174.781 476.243 174.424C476.599 174.066 476.859 173.649 477.02 173.172C477.182 172.693 477.262 172.177 477.262 171.625C477.262 170.518 476.903 169.656 476.183 169.033C475.463 168.412 474.348 168.1 472.84 168.1H470.49V175.564H472.84ZM485.244 188.9H479.958C478.979 188.9 478.275 188.532 477.85 187.794L473.668 180.486C473.474 180.176 473.255 179.949 473.012 179.805C472.771 179.661 472.424 179.589 471.976 179.589H470.49V188.9H464.651V163.73H472.84C474.659 163.73 476.211 163.917 477.495 164.29C478.779 164.665 479.827 165.186 480.64 165.854C481.452 166.522 482.042 167.312 482.411 168.221C482.779 169.132 482.963 170.121 482.963 171.193C482.963 172.01 482.854 172.782 482.635 173.508C482.416 174.233 482.094 174.904 481.667 175.52C481.242 176.137 480.714 176.686 480.087 177.17C479.459 177.653 478.736 178.052 477.919 178.362C478.299 178.558 478.655 178.802 478.99 179.096C479.323 179.39 479.623 179.738 479.888 180.142L485.244 188.9Z" fill="#414142"/>
<path d="M501.812 179.278L499.48 172.385C499.306 171.947 499.121 171.433 498.926 170.838C498.73 170.246 498.534 169.603 498.34 168.913C498.166 169.615 497.982 170.266 497.785 170.865C497.59 171.463 497.406 171.982 497.233 172.419L494.918 179.278H501.812ZM511.089 188.901H506.562C506.056 188.901 505.646 188.782 505.336 188.546C505.025 188.31 504.788 188.007 504.626 187.639L503.141 183.251H493.57L492.085 187.639C491.958 187.962 491.73 188.253 491.402 188.511C491.074 188.771 490.669 188.901 490.185 188.901H485.624L495.368 163.73H501.345L511.089 188.901Z" fill="#414142"/>
<path d="M536.189 163.73V188.9H533.149C532.7 188.9 532.322 188.828 532.017 188.684C531.713 188.54 531.409 188.29 531.11 187.932L519.242 172.92C519.288 173.37 519.32 173.804 519.337 174.224C519.354 174.646 519.364 175.039 519.364 175.408V188.9H514.216V163.73H517.289C517.544 163.73 517.757 163.742 517.929 163.764C518.102 163.787 518.257 163.831 518.396 163.894C518.534 163.956 518.665 164.047 518.793 164.162C518.92 164.276 519.062 164.432 519.224 164.628L531.197 179.744C531.14 179.26 531.1 178.791 531.076 178.336C531.052 177.882 531.041 177.452 531.041 177.05V163.73H536.189Z" fill="#414142"/>
<path d="M556.109 168.843C555.937 169.12 555.754 169.327 555.565 169.466C555.374 169.603 555.13 169.672 554.83 169.672C554.566 169.672 554.281 169.59 553.975 169.422C553.67 169.255 553.325 169.067 552.939 168.86C552.553 168.654 552.113 168.466 551.618 168.299C551.122 168.132 550.558 168.048 549.923 168.048C548.83 168.048 548.015 168.282 547.479 168.748C546.945 169.215 546.677 169.844 546.677 170.64C546.677 171.147 546.838 171.567 547.161 171.9C547.482 172.235 547.906 172.523 548.43 172.764C548.954 173.007 549.553 173.228 550.227 173.43C550.901 173.631 551.587 173.856 552.291 174.103C552.993 174.351 553.682 174.643 554.357 174.976C555.029 175.311 555.629 175.736 556.151 176.255C556.677 176.772 557.099 177.403 557.422 178.147C557.745 178.89 557.906 179.784 557.906 180.832C557.906 181.996 557.703 183.084 557.302 184.098C556.898 185.111 556.313 185.995 555.547 186.75C554.782 187.504 553.838 188.096 552.714 188.528C551.591 188.96 550.315 189.176 548.887 189.176C548.105 189.176 547.306 189.096 546.495 188.935C545.683 188.774 544.898 188.546 544.137 188.252C543.377 187.959 542.662 187.611 541.995 187.207C541.326 186.804 540.746 186.355 540.249 185.86L541.977 183.13C542.115 182.935 542.298 182.771 542.522 182.638C542.747 182.506 542.99 182.439 543.255 182.439C543.601 182.439 543.95 182.548 544.302 182.767C544.651 182.986 545.05 183.228 545.493 183.492C545.937 183.759 546.446 184 547.022 184.219C547.598 184.438 548.277 184.547 549.061 184.547C550.121 184.547 550.943 184.314 551.53 183.847C552.118 183.38 552.413 182.64 552.413 181.627C552.413 181.039 552.25 180.563 551.927 180.194C551.606 179.824 551.183 179.519 550.658 179.278C550.135 179.036 549.538 178.823 548.87 178.639C548.202 178.454 547.518 178.25 546.814 178.026C546.113 177.8 545.426 177.524 544.758 177.196C544.09 176.868 543.495 176.436 542.97 175.9C542.447 175.366 542.025 174.698 541.701 173.896C541.378 173.096 541.217 172.108 541.217 170.934C541.217 169.99 541.407 169.067 541.787 168.17C542.167 167.271 542.726 166.471 543.463 165.768C544.199 165.066 545.105 164.504 546.175 164.084C547.247 163.663 548.473 163.454 549.855 163.454C550.627 163.454 551.378 163.514 552.11 163.635C552.841 163.756 553.534 163.934 554.193 164.171C554.849 164.406 555.462 164.688 556.031 165.016C556.601 165.344 557.111 165.716 557.561 166.131L556.109 168.843Z" fill="#414142"/>
<path d="M577.651 184.236V188.901H562.483V163.73H568.322V184.236H577.651Z" fill="#414142"/>
<path d="M595.064 179.278L592.732 172.385C592.559 171.947 592.374 171.433 592.179 170.838C591.983 170.246 591.787 169.603 591.592 168.913C591.419 169.615 591.235 170.266 591.038 170.865C590.843 171.463 590.659 171.982 590.486 172.419L588.171 179.278H595.064ZM604.342 188.901H599.815C599.308 188.901 598.899 188.782 598.588 188.546C598.278 188.31 598.04 188.007 597.879 187.639L596.394 183.251H586.823L585.338 187.639C585.211 187.962 584.983 188.253 584.655 188.511C584.327 188.771 583.922 188.901 583.438 188.901H578.876L588.62 163.73H594.598L604.342 188.901Z" fill="#414142"/>
<path d="M623.103 168.359H616.021V188.901H610.182V168.359H603.098V163.73H623.103V168.359Z" fill="#414142"/>
<path d="M633.073 188.9H627.199V163.73H633.073V188.9Z" fill="#414142"/>
<path d="M657.809 176.307C657.809 175.063 657.648 173.943 657.325 172.947C657.004 171.951 656.54 171.107 655.934 170.416C655.33 169.724 654.59 169.195 653.714 168.827C652.838 168.457 651.842 168.273 650.726 168.273C649.597 168.273 648.593 168.457 647.712 168.827C646.83 169.195 646.088 169.724 645.482 170.416C644.878 171.107 644.414 171.951 644.092 172.947C643.77 173.943 643.609 175.063 643.609 176.307C643.609 177.561 643.77 178.688 644.092 179.684C644.414 180.68 644.878 181.524 645.482 182.215C646.088 182.905 646.83 183.433 647.712 183.796C648.593 184.159 649.597 184.34 650.726 184.34C651.842 184.34 652.838 184.159 653.714 183.796C654.59 183.433 655.33 182.905 655.934 182.215C656.54 181.524 657.004 180.68 657.325 179.684C657.648 178.688 657.809 177.561 657.809 176.307ZM663.786 176.307C663.786 178.127 663.472 179.82 662.844 181.385C662.217 182.952 661.334 184.313 660.193 185.472C659.053 186.629 657.678 187.536 656.073 188.192C654.466 188.848 652.684 189.177 650.726 189.177C648.768 189.177 646.982 188.848 645.37 188.192C643.758 187.536 642.38 186.629 641.233 185.472C640.086 184.313 639.2 182.952 638.572 181.385C637.945 179.82 637.63 178.127 637.63 176.307C637.63 174.487 637.945 172.793 638.572 171.227C639.2 169.661 640.086 168.303 641.233 167.151C642.38 165.999 643.758 165.095 645.37 164.439C646.982 163.781 648.768 163.453 650.726 163.453C652.684 163.453 654.466 163.784 656.073 164.447C657.678 165.109 659.053 166.016 660.193 167.168C661.334 168.32 662.217 169.679 662.844 171.245C663.472 172.811 663.786 174.499 663.786 176.307Z" fill="#414142"/>
<path d="M690.339 163.73V188.9H687.299C686.85 188.9 686.472 188.828 686.167 188.684C685.863 188.54 685.559 188.29 685.26 187.932L673.392 172.92C673.438 173.37 673.47 173.804 673.487 174.224C673.504 174.646 673.514 175.039 673.514 175.408V188.9H668.366V163.73H671.439C671.694 163.73 671.907 163.742 672.079 163.764C672.252 163.787 672.407 163.831 672.546 163.894C672.684 163.956 672.815 164.047 672.943 164.162C673.07 164.276 673.212 164.432 673.374 164.628L685.347 179.744C685.29 179.26 685.25 178.791 685.226 178.336C685.202 177.882 685.191 177.452 685.191 177.05V163.73H690.339Z" fill="#414142"/>
<path d="M709.86 168.389C709.688 168.667 709.505 168.873 709.316 169.012C709.125 169.149 708.881 169.219 708.581 169.219C708.317 169.219 708.032 169.136 707.727 168.968C707.421 168.801 707.076 168.613 706.691 168.407C706.304 168.2 705.864 168.012 705.369 167.845C704.873 167.679 704.309 167.595 703.675 167.595C702.581 167.595 701.767 167.828 701.231 168.295C700.696 168.761 700.428 169.391 700.428 170.187C700.428 170.693 700.589 171.113 700.912 171.447C701.233 171.781 701.657 172.069 702.181 172.311C702.705 172.553 703.304 172.775 703.979 172.976C704.652 173.177 705.339 173.403 706.043 173.649C706.744 173.897 707.433 174.189 708.108 174.523C708.78 174.857 709.38 175.283 709.903 175.801C710.428 176.319 710.851 176.949 711.173 177.693C711.496 178.436 711.657 179.331 711.657 180.379C711.657 181.543 711.455 182.631 711.053 183.644C710.649 184.657 710.064 185.541 709.299 186.296C708.533 187.051 707.589 187.643 706.465 188.075C705.343 188.507 704.067 188.723 702.639 188.723C701.856 188.723 701.057 188.643 700.247 188.481C699.435 188.32 698.649 188.092 697.888 187.799C697.128 187.505 696.413 187.157 695.747 186.753C695.077 186.351 694.497 185.901 694 185.407L695.728 182.676C695.867 182.481 696.049 182.317 696.273 182.184C696.499 182.052 696.741 181.985 697.007 181.985C697.352 181.985 697.701 182.095 698.053 182.313C698.403 182.532 698.801 182.775 699.244 183.039C699.688 183.305 700.197 183.547 700.773 183.765C701.349 183.984 702.028 184.093 702.812 184.093C703.872 184.093 704.695 183.86 705.281 183.393C705.869 182.927 706.164 182.187 706.164 181.173C706.164 180.585 706.001 180.109 705.679 179.74C705.357 179.371 704.935 179.065 704.409 178.824C703.887 178.583 703.289 178.369 702.621 178.185C701.953 178 701.269 177.796 700.565 177.572C699.864 177.347 699.177 177.071 698.509 176.743C697.841 176.415 697.247 175.983 696.721 175.447C696.199 174.912 695.776 174.244 695.452 173.443C695.129 172.643 694.968 171.655 694.968 170.48C694.968 169.536 695.159 168.613 695.539 167.716C695.919 166.817 696.477 166.017 697.215 165.315C697.951 164.612 698.856 164.051 699.927 163.631C700.999 163.209 702.224 163 703.607 163C704.379 163 705.129 163.06 705.861 163.181C706.592 163.303 707.285 163.48 707.944 163.717C708.6 163.952 709.213 164.235 709.783 164.563C710.352 164.891 710.863 165.263 711.312 165.677L709.86 168.389Z" fill="#414142"/>
<path d="M228.284 74.8065C228.031 72.5905 226.17 72.1505 224.336 72.0065C222.571 71.8692 220.79 71.8665 219.015 71.8652C204.586 71.8572 190.154 71.8719 175.724 71.8625C165.206 71.8545 165.198 71.8412 165.19 61.0145C165.178 46.3625 164.954 31.7052 165.291 17.0612C165.427 11.1319 163.074 8.16654 157.626 6.42654C131.66 -1.86146 105.823 -2.48013 79.8724 6.60653C74.807 8.3812 72.9684 11.0999 73.0444 16.3345C73.2737 31.8705 73.143 47.4132 73.103 62.9519C73.0817 71.5092 72.7404 71.8199 63.9737 71.8572C56.4244 71.8892 48.8777 71.8625 41.3284 71.8625V71.8999C32.6724 71.8999 24.0137 71.8639 15.3577 71.9279C13.4124 71.9425 11.0137 71.7572 10.3497 74.2065C9.67371 76.6959 11.9017 77.6985 13.5804 78.6452C36.7577 91.7159 59.6284 105.491 84.7164 114.685C88.7284 116.155 92.759 117.56 96.8244 118.769L78.5097 80.7559L96.7724 74.4132L108.076 121.471C110.458 121.888 112.856 122.191 115.272 122.363L109.598 64.9892H128.931L122.312 122.452C124.708 122.343 127.126 122.084 129.567 121.644L140.912 74.4132L159.175 80.7559L140.875 118.739C151.194 115.669 161.206 111.848 171.008 107.371C189.803 98.7879 207.552 88.2465 225.574 78.2159C226.938 77.4572 228.496 76.6532 228.284 74.8065Z" fill="#ED1C24"/>
</svg>
