<svg width="713" height="244" viewBox="0 0 713 244" fill="none" xmlns="http://www.w3.org/2000/svg">
<path d="M99.1671 238.636L90.8391 165.546C87.9031 152.142 80.4071 141.54 67.6591 134.623C48.4298 124.191 27.4551 118.108 7.06309 110.59C0.591092 108.202 0.66043 113.62 0.369763 117.311C-0.95557 134.123 1.31376 150.475 6.66443 166.519C8.73243 172.724 12.1938 174.691 18.4471 174.415L59.8791 175.027C66.5058 175.415 69.2164 176.527 70.3098 177.475C70.5511 177.942 70.7778 178.451 70.9898 179L72.6591 231.108C73.9711 239.022 78.4404 239.876 93.6471 242.772C93.8644 242.814 94.0818 242.868 94.2978 242.923C98.0178 243.876 99.7058 242.928 99.1671 238.636Z" fill="white"/>
<path d="M140.189 238.636L148.517 165.546C151.453 152.142 158.949 141.54 171.697 134.623C190.926 124.191 211.901 118.108 232.293 110.59C238.765 108.202 238.696 113.62 238.986 117.311C240.312 134.123 238.042 150.475 232.692 166.519C230.624 172.724 227.162 174.691 220.909 174.415L179.477 175.027C172.85 175.415 170.14 176.527 169.046 177.475C168.805 177.942 168.578 178.451 168.366 179L166.697 231.108C165.385 239.022 160.916 239.876 145.709 242.772C145.492 242.814 145.274 242.868 145.058 242.923C141.338 243.876 139.65 242.928 140.189 238.636Z" fill="white"/>
<path d="M309.616 134.522C312.388 134.522 314.654 134.17 316.414 133.466C318.172 132.763 319.548 131.853 320.542 130.734C321.535 129.617 322.218 128.355 322.59 126.946C322.963 125.541 323.148 124.113 323.148 122.663C323.148 121.009 322.932 119.519 322.498 118.194C322.063 116.87 321.318 115.753 320.262 114.842C319.207 113.931 317.811 113.227 316.072 112.73C314.334 112.234 312.14 111.986 309.491 111.986H294.84V134.522H309.616ZM294.84 75.6045V97.9552H305.766C308.084 97.9552 310.175 97.7899 312.036 97.4592C313.899 97.1285 315.482 96.5485 316.786 95.7192C318.09 94.8925 319.083 93.7552 319.766 92.3059C320.448 90.8579 320.791 89.0379 320.791 86.8419C320.791 84.6912 320.522 82.9005 319.983 81.4725C319.444 80.0459 318.618 78.8965 317.5 78.0272C316.382 77.1579 314.964 76.5379 313.248 76.1645C311.53 75.7925 309.491 75.6045 307.132 75.6045H294.84ZM307.132 59.8992C313.382 59.8992 318.699 60.4805 323.088 61.6379C327.475 62.7965 331.054 64.4312 333.827 66.5432C336.599 68.6525 338.618 71.2192 339.88 74.2405C341.143 77.2619 341.774 80.6339 341.774 84.3592C341.774 86.3872 341.483 88.3432 340.906 90.2259C340.324 92.1099 339.415 93.8685 338.174 95.5032C336.931 97.1392 335.338 98.6392 333.392 100.003C331.447 101.37 329.11 102.55 326.378 103.543C332.338 104.993 336.746 107.329 339.6 110.558C342.456 113.786 343.884 117.967 343.884 123.098C343.884 126.946 343.14 130.527 341.65 133.838C340.159 137.15 337.976 140.038 335.1 142.498C332.223 144.962 328.675 146.886 324.454 148.273C320.232 149.661 315.41 150.353 309.988 150.353H273.858V59.8992H307.132Z" fill="white"/>
<path d="M390.507 102.425C393.364 102.425 395.794 102.064 397.803 101.34C399.81 100.616 401.454 99.6108 402.738 98.3282C404.02 97.0455 404.951 95.5455 405.532 93.8268C406.11 92.1108 406.4 90.2562 406.4 88.2708C406.4 84.2975 405.106 81.1935 402.52 78.9575C399.932 76.7228 395.928 75.6055 390.507 75.6055H382.064V102.425H390.507ZM435.083 150.352H416.086C412.567 150.352 410.042 149.027 408.511 146.379L393.487 120.119C392.783 119.001 391.998 118.183 391.128 117.665C390.259 117.149 389.018 116.891 387.403 116.891H382.064V150.352H361.082V59.8988H390.507C397.046 59.8988 402.623 60.5722 407.239 61.9175C411.854 63.2615 415.619 65.1348 418.536 67.5348C421.455 69.9362 423.576 72.7722 424.9 76.0402C426.224 79.3108 426.887 82.8695 426.887 86.7188C426.887 89.6575 426.492 92.4308 425.707 95.0375C424.922 97.6442 423.762 100.056 422.231 102.269C420.7 104.485 418.807 106.46 416.55 108.199C414.295 109.937 411.698 111.365 408.759 112.483C410.126 113.185 411.408 114.065 412.608 115.12C413.808 116.176 414.884 117.428 415.836 118.876L435.083 150.352Z" fill="white"/>
<path d="M494.616 115.772L486.236 91.0025C485.615 89.4291 484.952 87.5771 484.25 85.4465C483.544 83.3145 482.842 81.0065 482.139 78.5238C481.518 81.0478 480.855 83.3865 480.151 85.5385C479.447 87.6905 478.786 89.5531 478.164 91.1265L469.846 115.772H494.616ZM527.955 150.353H511.69C509.867 150.353 508.399 149.928 507.282 149.078C506.163 148.232 505.315 147.144 504.736 145.82L499.396 130.05H465.003L459.664 145.82C459.208 146.978 458.392 148.024 457.212 148.954C456.034 149.886 454.574 150.353 452.835 150.353H436.446L471.46 59.8998H492.94L527.955 150.353Z" fill="white"/>
<path d="M612.758 59.8994L576.502 150.353H557.506L521.249 59.8994H538.136C539.956 59.8994 541.426 60.3234 542.544 61.1728C543.661 62.0208 544.508 63.1074 545.089 64.4301L562.596 112.855C563.424 114.965 564.23 117.273 565.017 119.777C565.802 122.282 566.548 124.899 567.252 127.63C567.832 124.899 568.484 122.282 569.208 119.777C569.932 117.273 570.708 114.965 571.536 112.855L588.918 64.4301C589.373 63.2728 590.19 62.2274 591.37 61.2954C592.55 60.3661 594.009 59.8994 595.748 59.8994H612.758Z" fill="white"/>
<path d="M688.002 105.095C688.002 100.624 687.422 96.6001 686.263 93.0188C685.105 89.4414 683.439 86.4068 681.266 83.9254C679.093 81.4414 676.434 79.5374 673.289 78.2134C670.142 76.8894 666.563 76.2281 662.549 76.2281C658.493 76.2281 654.882 76.8894 651.715 78.2134C648.55 79.5374 645.879 81.4414 643.707 83.9254C641.534 86.4068 639.867 89.4414 638.709 93.0188C637.55 96.6001 636.971 100.624 636.971 105.095C636.971 109.605 637.55 113.652 638.709 117.232C639.867 120.811 641.534 123.844 643.707 126.327C645.879 128.809 648.55 130.703 651.715 132.007C654.882 133.311 658.493 133.961 662.549 133.961C666.563 133.961 670.142 133.311 673.289 132.007C676.434 130.703 679.093 128.809 681.266 126.327C683.439 123.844 685.105 120.811 686.263 117.232C687.422 113.652 688.002 109.605 688.002 105.095ZM709.482 105.095C709.482 111.633 708.355 117.719 706.099 123.347C703.843 128.975 700.667 133.869 696.57 138.029C692.473 142.188 687.537 145.448 681.763 147.805C675.989 150.165 669.585 151.345 662.549 151.345C655.513 151.345 649.097 150.165 643.305 147.805C637.509 145.448 632.553 142.188 628.435 138.029C624.315 133.869 621.13 128.975 618.874 123.347C616.618 117.719 615.491 111.633 615.491 105.095C615.491 98.5561 616.618 92.4721 618.874 86.8428C621.13 81.2148 624.315 76.3308 628.435 72.1908C632.553 68.0534 637.509 64.8028 643.305 62.4441C649.097 60.0854 655.513 58.9054 662.549 58.9054C669.585 58.9054 675.989 60.0961 681.763 62.4748C687.537 64.8548 692.473 68.1161 696.57 72.2534C700.667 76.3921 703.843 81.2774 706.099 86.9041C708.355 92.5334 709.482 98.5974 709.482 105.095Z" fill="white"/>
<path d="M300.395 163.729V188.899H295.247V174.423C295.247 174.089 295.256 173.725 295.272 173.334C295.291 172.942 295.322 172.545 295.367 172.142L288.683 185.082C288.476 185.485 288.196 185.79 287.844 185.997C287.492 186.203 287.092 186.309 286.644 186.309H285.85C285.4 186.309 284.999 186.203 284.648 185.997C284.298 185.79 284.018 185.485 283.811 185.082L277.126 172.107C277.159 172.522 277.188 172.927 277.211 173.325C277.235 173.722 277.247 174.089 277.247 174.423V188.899H272.098V163.729H276.555C276.808 163.729 277.031 163.735 277.22 163.746C277.411 163.757 277.58 163.793 277.73 163.85C277.879 163.907 278.015 163.995 278.136 164.118C278.256 164.238 278.374 164.409 278.49 164.627L284.968 177.394C285.199 177.831 285.42 178.287 285.634 178.758C285.847 179.23 286.05 179.714 286.247 180.209C286.442 179.702 286.646 179.207 286.86 178.725C287.074 178.241 287.3 177.779 287.542 177.342L294.003 164.627C294.118 164.409 294.236 164.238 294.358 164.118C294.479 163.995 294.614 163.907 294.763 163.85C294.914 163.793 295.083 163.757 295.272 163.746C295.463 163.735 295.684 163.729 295.938 163.729H300.395Z" fill="white"/>
<path d="M312.282 168.22V174.094H320.194V178.413H312.282V184.408H322.612V188.9H306.408V163.729H322.612V168.22H312.282Z" fill="white"/>
<path d="M344.206 176.306C344.206 175.06 344.045 173.939 343.723 172.936C343.401 171.935 342.937 171.086 342.331 170.39C341.727 169.691 340.987 169.158 340.113 168.782C339.235 168.407 338.239 168.22 337.123 168.22H333.219V184.407H337.123C338.239 184.407 339.235 184.22 340.113 183.846C340.987 183.472 341.727 182.936 342.331 182.24C342.937 181.543 343.401 180.694 343.723 179.691C344.045 178.69 344.206 177.56 344.206 176.306ZM350.183 176.306C350.183 178.126 349.87 179.803 349.242 181.342C348.614 182.879 347.731 184.21 346.59 185.332C345.45 186.454 344.075 187.331 342.47 187.958C340.863 188.586 339.081 188.899 337.123 188.899H327.345V163.728H337.123C339.081 163.728 340.863 164.046 342.47 164.678C344.075 165.314 345.45 166.188 346.59 167.306C347.731 168.423 348.614 169.75 349.242 171.287C349.87 172.824 350.183 174.499 350.183 176.306Z" fill="white"/>
<path d="M360.652 188.9H354.779V163.729H360.652V188.9Z" fill="white"/>
<path d="M383.629 182.386C383.768 182.386 383.905 182.413 384.044 182.465C384.181 182.517 384.315 182.605 384.44 182.733L386.756 185.168C385.743 186.493 384.472 187.49 382.947 188.165C381.42 188.84 379.615 189.176 377.531 189.176C375.619 189.176 373.905 188.85 372.391 188.198C370.877 187.549 369.593 186.65 368.539 185.505C367.485 184.358 366.675 183 366.111 181.428C365.547 179.856 365.265 178.148 365.265 176.305C365.265 174.428 365.569 172.704 366.18 171.132C366.791 169.56 367.649 168.204 368.755 167.064C369.86 165.922 371.184 165.036 372.728 164.402C374.271 163.769 375.969 163.452 377.824 163.452C378.768 163.452 379.657 163.536 380.493 163.702C381.328 163.87 382.108 164.1 382.833 164.394C383.56 164.689 384.227 165.042 384.837 165.457C385.448 165.87 385.991 166.32 386.463 166.802L384.492 169.446C384.367 169.608 384.216 169.756 384.044 169.888C383.871 170.02 383.629 170.086 383.319 170.086C383.111 170.086 382.915 170.04 382.731 169.949C382.547 169.856 382.351 169.744 382.144 169.61C381.935 169.478 381.709 169.334 381.461 169.18C381.213 169.025 380.92 168.88 380.58 168.748C380.24 168.616 379.843 168.504 379.387 168.41C378.933 168.318 378.4 168.272 377.789 168.272C376.823 168.272 375.937 168.452 375.139 168.808C374.337 169.165 373.647 169.686 373.064 170.37C372.484 171.057 372.035 171.897 371.717 172.894C371.4 173.889 371.243 175.026 371.243 176.305C371.243 177.594 371.417 178.741 371.768 179.744C372.12 180.746 372.599 181.589 373.204 182.274C373.808 182.96 374.513 183.48 375.32 183.837C376.125 184.194 376.989 184.373 377.911 184.373C378.44 184.373 378.924 184.348 379.361 184.296C379.8 184.244 380.209 184.157 380.588 184.036C380.968 183.914 381.324 183.753 381.659 183.553C381.993 183.352 382.333 183.094 382.679 182.784C382.817 182.669 382.967 182.574 383.128 182.498C383.289 182.424 383.456 182.386 383.629 182.386Z" fill="white"/>
<path d="M403.754 179.277L401.422 172.384C401.249 171.946 401.064 171.43 400.869 170.837C400.673 170.245 400.477 169.602 400.282 168.913C400.109 169.614 399.925 170.264 399.728 170.862C399.533 171.462 399.349 171.98 399.176 172.417L396.861 179.277H403.754ZM413.032 188.9H408.505C407.998 188.9 407.589 188.782 407.278 188.545C406.968 188.309 406.73 188.006 406.569 187.638L405.084 183.25H395.513L394.028 187.638C393.901 187.961 393.673 188.25 393.345 188.512C393.017 188.769 392.612 188.9 392.128 188.9H387.566L397.31 163.729H403.288L413.032 188.9Z" fill="white"/>
<path d="M431.327 184.235V188.899H416.159V163.729H421.998V184.235H431.327Z" fill="white"/>
<path d="M460.556 168.358H453.474V188.899H447.635V168.358H440.551V163.728H460.556V168.358Z" fill="white"/>
<path d="M472.84 175.563C473.635 175.563 474.311 175.462 474.87 175.259C475.427 175.058 475.886 174.779 476.243 174.423C476.599 174.066 476.859 173.647 477.02 173.17C477.182 172.693 477.262 172.177 477.262 171.623C477.262 170.518 476.903 169.654 476.183 169.033C475.463 168.41 474.348 168.099 472.84 168.099H470.49V175.563H472.84ZM485.244 188.899H479.958C478.979 188.899 478.275 188.531 477.85 187.794L473.668 180.485C473.474 180.175 473.255 179.949 473.012 179.803C472.771 179.659 472.424 179.587 471.976 179.587H470.49V188.899H464.651V163.729H472.84C474.659 163.729 476.211 163.917 477.495 164.29C478.779 164.665 479.827 165.186 480.64 165.854C481.452 166.522 482.042 167.311 482.411 168.219C482.779 169.131 482.963 170.121 482.963 171.191C482.963 172.01 482.854 172.782 482.635 173.506C482.416 174.233 482.094 174.903 481.667 175.519C481.242 176.137 480.714 176.686 480.087 177.169C479.459 177.651 478.736 178.05 477.919 178.361C478.299 178.557 478.655 178.802 478.99 179.094C479.323 179.389 479.623 179.738 479.888 180.142L485.244 188.899Z" fill="white"/>
<path d="M501.812 179.277L499.48 172.384C499.306 171.946 499.121 171.43 498.926 170.837C498.73 170.245 498.534 169.602 498.34 168.913C498.166 169.614 497.982 170.264 497.785 170.862C497.59 171.462 497.406 171.98 497.233 172.417L494.918 179.277H501.812ZM511.089 188.9H506.562C506.056 188.9 505.646 188.782 505.336 188.545C505.025 188.309 504.788 188.006 504.626 187.638L503.141 183.25H493.57L492.085 187.638C491.958 187.961 491.73 188.25 491.402 188.512C491.074 188.769 490.669 188.9 490.185 188.9H485.624L495.368 163.729H501.345L511.089 188.9Z" fill="white"/>
<path d="M536.189 163.729V188.899H533.149C532.7 188.899 532.322 188.827 532.017 188.683C531.713 188.539 531.409 188.29 531.11 187.931L519.242 172.921C519.288 173.367 519.32 173.803 519.337 174.223C519.354 174.645 519.364 175.038 519.364 175.407V188.899H514.216V163.729H517.289C517.544 163.729 517.757 163.741 517.929 163.763C518.102 163.787 518.257 163.829 518.396 163.893C518.534 163.957 518.665 164.045 518.793 164.159C518.92 164.275 519.062 164.43 519.224 164.627L531.197 179.743C531.14 179.258 531.1 178.79 531.076 178.335C531.052 177.881 531.041 177.451 531.041 177.047V163.729H536.189Z" fill="white"/>
<path d="M556.109 168.842C555.937 169.118 555.754 169.326 555.565 169.465C555.374 169.602 555.13 169.671 554.83 169.671C554.566 169.671 554.281 169.589 553.975 169.421C553.67 169.254 553.325 169.066 552.939 168.861C552.553 168.651 552.113 168.465 551.618 168.298C551.122 168.131 550.558 168.047 549.923 168.047C548.83 168.047 548.015 168.281 547.479 168.747C546.945 169.214 546.677 169.845 546.677 170.639C546.677 171.147 546.838 171.566 547.161 171.899C547.482 172.234 547.906 172.522 548.43 172.763C548.954 173.006 549.553 173.227 550.227 173.429C550.901 173.631 551.587 173.855 552.291 174.102C552.993 174.35 553.682 174.642 554.357 174.975C555.029 175.31 555.629 175.735 556.151 176.254C556.677 176.771 557.099 177.402 557.422 178.146C557.745 178.889 557.906 179.783 557.906 180.831C557.906 181.995 557.703 183.085 557.302 184.097C556.898 185.11 556.313 185.994 555.547 186.749C554.782 187.503 553.838 188.095 552.714 188.527C551.591 188.959 550.315 189.175 548.887 189.175C548.105 189.175 547.306 189.094 546.495 188.933C545.683 188.773 544.898 188.545 544.137 188.251C543.377 187.958 542.662 187.61 541.995 187.206C541.326 186.803 540.746 186.355 540.249 185.859L541.977 183.129C542.115 182.933 542.298 182.769 542.522 182.637C542.747 182.505 542.99 182.438 543.255 182.438C543.601 182.438 543.95 182.547 544.302 182.766C544.651 182.985 545.05 183.227 545.493 183.491C545.937 183.758 546.446 183.998 547.022 184.217C547.598 184.435 548.277 184.545 549.061 184.545C550.121 184.545 550.943 184.314 551.53 183.846C552.118 183.379 552.413 182.639 552.413 181.626C552.413 181.038 552.25 180.561 551.927 180.193C551.606 179.823 551.183 179.519 550.658 179.277C550.135 179.035 549.538 178.821 548.87 178.638C548.202 178.454 547.518 178.249 546.814 178.025C546.113 177.801 545.426 177.523 544.758 177.195C544.09 176.867 543.495 176.435 542.97 175.899C542.447 175.365 542.025 174.697 541.701 173.895C541.378 173.094 541.217 172.107 541.217 170.933C541.217 169.987 541.407 169.066 541.787 168.169C542.167 167.27 542.726 166.47 543.463 165.766C544.199 165.065 545.105 164.503 546.175 164.083C547.247 163.662 548.473 163.451 549.855 163.451C550.627 163.451 551.378 163.513 552.11 163.634C552.841 163.755 553.534 163.933 554.193 164.17C554.849 164.405 555.462 164.689 556.031 165.017C556.601 165.345 557.111 165.715 557.561 166.13L556.109 168.842Z" fill="white"/>
<path d="M577.651 184.235V188.899H562.483V163.729H568.322V184.235H577.651Z" fill="white"/>
<path d="M595.064 179.277L592.732 172.384C592.559 171.946 592.374 171.43 592.179 170.837C591.983 170.245 591.787 169.602 591.592 168.913C591.419 169.614 591.235 170.264 591.038 170.862C590.843 171.462 590.659 171.98 590.486 172.417L588.171 179.277H595.064ZM604.342 188.9H599.815C599.308 188.9 598.899 188.782 598.588 188.545C598.278 188.309 598.04 188.006 597.879 187.638L596.394 183.25H586.823L585.338 187.638C585.211 187.961 584.983 188.25 584.655 188.512C584.327 188.769 583.922 188.9 583.438 188.9H578.876L588.62 163.729H594.598L604.342 188.9Z" fill="white"/>
<path d="M623.103 168.358H616.021V188.899H610.182V168.358H603.098V163.728H623.103V168.358Z" fill="white"/>
<path d="M633.073 188.9H627.199V163.729H633.073V188.9Z" fill="white"/>
<path d="M657.809 176.306C657.809 175.06 657.648 173.942 657.325 172.946C657.004 171.948 656.54 171.106 655.934 170.415C655.33 169.723 654.59 169.194 653.714 168.826C652.838 168.456 651.842 168.272 650.726 168.272C649.597 168.272 648.593 168.456 647.712 168.826C646.83 169.194 646.088 169.723 645.482 170.415C644.878 171.106 644.414 171.948 644.092 172.946C643.77 173.942 643.609 175.06 643.609 176.306C643.609 177.56 643.77 178.686 644.092 179.683C644.414 180.679 644.878 181.522 645.482 182.215C646.088 182.904 646.83 183.432 647.712 183.795C648.593 184.158 649.597 184.339 650.726 184.339C651.842 184.339 652.838 184.158 653.714 183.795C654.59 183.432 655.33 182.904 655.934 182.215C656.54 181.522 657.004 180.679 657.325 179.683C657.648 178.686 657.809 177.56 657.809 176.306ZM663.786 176.306C663.786 178.126 663.472 179.819 662.844 181.384C662.217 182.951 661.334 184.314 660.193 185.47C659.053 186.628 657.678 187.535 656.073 188.191C654.466 188.847 652.684 189.175 650.726 189.175C648.768 189.175 646.982 188.847 645.37 188.191C643.758 187.535 642.38 186.628 641.233 185.47C640.086 184.314 639.2 182.951 638.572 181.384C637.945 179.819 637.63 178.126 637.63 176.306C637.63 174.486 637.945 172.792 638.572 171.226C639.2 169.66 640.086 168.3 641.233 167.15C642.38 165.999 643.758 165.094 645.37 164.438C646.982 163.78 648.768 163.451 650.726 163.451C652.684 163.451 654.466 163.783 656.073 164.446C657.678 165.108 659.053 166.015 660.193 167.167C661.334 168.319 662.217 169.678 662.844 171.243C663.472 172.811 663.786 174.499 663.786 176.306Z" fill="white"/>
<path d="M690.339 163.729V188.899H687.299C686.85 188.899 686.472 188.827 686.167 188.683C685.863 188.539 685.559 188.29 685.26 187.931L673.392 172.921C673.438 173.367 673.47 173.803 673.487 174.223C673.504 174.645 673.514 175.038 673.514 175.407V188.899H668.366V163.729H671.439C671.694 163.729 671.907 163.741 672.079 163.763C672.252 163.787 672.407 163.829 672.546 163.893C672.684 163.957 672.815 164.045 672.943 164.159C673.07 164.275 673.212 164.43 673.374 164.627L685.347 179.743C685.29 179.258 685.25 178.79 685.226 178.335C685.202 177.881 685.191 177.451 685.191 177.047V163.729H690.339Z" fill="white"/>
<path d="M710.258 168.842C710.086 169.118 709.904 169.326 709.714 169.465C709.524 169.602 709.28 169.671 708.98 169.671C708.716 169.671 708.43 169.589 708.125 169.421C707.82 169.254 707.474 169.066 707.089 168.861C706.702 168.651 706.262 168.465 705.768 168.298C705.272 168.131 704.708 168.047 704.073 168.047C702.98 168.047 702.165 168.281 701.629 168.747C701.094 169.214 700.826 169.845 700.826 170.639C700.826 171.147 700.988 171.566 701.31 171.899C701.632 172.234 702.056 172.522 702.58 172.763C703.104 173.006 703.702 173.227 704.377 173.429C705.05 173.631 705.737 173.855 706.441 174.102C707.142 174.35 707.832 174.642 708.506 174.975C709.178 175.31 709.778 175.735 710.301 176.254C710.826 176.771 711.249 177.402 711.572 178.146C711.894 178.889 712.056 179.783 712.056 180.831C712.056 181.995 711.853 183.085 711.452 184.097C711.048 185.11 710.462 185.994 709.697 186.749C708.932 187.503 707.988 188.095 706.864 188.527C705.741 188.959 704.465 189.175 703.037 189.175C702.254 189.175 701.456 189.094 700.645 188.933C699.833 188.773 699.048 188.545 698.286 188.251C697.526 187.958 696.812 187.61 696.145 187.206C695.476 186.803 694.896 186.355 694.398 185.859L696.126 183.129C696.265 182.933 696.448 182.769 696.672 182.637C696.897 182.505 697.14 182.438 697.405 182.438C697.75 182.438 698.1 182.547 698.452 182.766C698.801 182.985 699.2 183.227 699.642 183.491C700.086 183.758 700.596 183.998 701.172 184.217C701.748 184.435 702.426 184.545 703.21 184.545C704.27 184.545 705.093 184.314 705.68 183.846C706.268 183.379 706.562 182.639 706.562 181.626C706.562 181.038 706.4 180.561 706.077 180.193C705.756 179.823 705.333 179.519 704.808 179.277C704.285 179.035 703.688 178.821 703.02 178.638C702.352 178.454 701.668 178.249 700.964 178.025C700.262 177.801 699.576 177.523 698.908 177.195C698.24 176.867 697.645 176.435 697.12 175.899C696.597 175.365 696.174 174.697 695.85 173.895C695.528 173.094 695.366 172.107 695.366 170.933C695.366 169.987 695.557 169.066 695.937 168.169C696.317 167.27 696.876 166.47 697.613 165.766C698.349 165.065 699.254 164.503 700.325 164.083C701.397 163.662 702.622 163.451 704.005 163.451C704.777 163.451 705.528 163.513 706.26 163.634C706.99 163.755 707.684 163.933 708.342 164.17C708.998 164.405 709.612 164.689 710.181 165.017C710.75 165.345 711.261 165.715 711.71 166.13L710.258 168.842Z" fill="white"/>
<path d="M228.284 74.8057C228.031 72.5897 226.17 72.1497 224.336 72.0057C222.571 71.8684 220.79 71.8657 219.015 71.8657C204.586 71.8577 190.154 71.871 175.724 71.8604C165.206 71.8524 165.198 71.8417 165.19 61.0137C165.178 46.363 164.954 31.7044 165.291 17.0604C165.427 11.131 163.074 8.16437 157.626 6.42703C131.66 -1.86097 105.823 -2.48095 79.8724 6.60705C74.807 8.38038 72.9684 11.099 73.0444 16.3337C73.2737 31.871 73.143 47.4124 73.103 62.951C73.0817 71.5084 72.7404 71.819 63.9737 71.855C56.4244 71.8884 48.8777 71.863 41.3284 71.863V71.899C32.6724 71.899 24.0137 71.863 15.3577 71.9284C13.4124 71.9417 11.0137 71.7564 10.3497 74.207C9.67371 76.6964 11.9017 77.699 13.5804 78.6444C36.7577 91.715 59.6284 105.491 84.7164 114.683C88.7284 116.155 92.759 117.56 96.8244 118.77L78.5097 80.7564L96.7724 74.4124L108.076 121.47C110.458 121.887 112.856 122.188 115.272 122.363L109.598 64.9884H128.931L122.312 122.451C124.708 122.342 127.126 122.084 129.567 121.644L140.912 74.4124L159.175 80.7564L140.875 118.738C151.194 115.67 161.206 111.847 171.008 107.371C189.803 98.787 207.552 88.2457 225.574 78.215C226.938 77.4564 228.496 76.6524 228.284 74.8057Z" fill="white"/>
</svg>
