<svg width="240" height="244" viewBox="0 0 240 244" fill="none" xmlns="http://www.w3.org/2000/svg">
<path d="M99.1671 238.636L90.8391 165.545C87.9031 152.143 80.4071 141.541 67.6591 134.625C48.4298 124.192 27.4551 118.109 7.06309 110.589C0.591092 108.203 0.66043 113.621 0.369763 117.311C-0.95557 134.123 1.31376 150.475 6.66443 166.521C8.73243 172.725 12.1938 174.692 18.4471 174.415L59.8791 175.027C66.5058 175.415 69.2164 176.528 70.3098 177.475C70.5511 177.941 70.7778 178.451 70.9898 179.001L72.6591 231.109C73.9711 239.023 78.4404 239.876 93.6471 242.772C93.8644 242.813 94.0818 242.868 94.2978 242.924C98.0178 243.876 99.7058 242.928 99.1671 238.636Z" fill="#72CAF2"/>
<path d="M140.189 238.636L148.517 165.545C151.453 152.143 158.949 141.541 171.697 134.625C190.927 124.192 211.901 118.109 232.293 110.589C238.765 108.203 238.696 113.621 238.987 117.311C240.312 134.123 238.043 150.475 232.692 166.521C230.624 172.725 227.163 174.692 220.909 174.415L179.477 175.027C172.851 175.415 170.14 176.528 169.047 177.475C168.805 177.941 168.579 178.451 168.367 179.001L166.697 231.109C165.385 239.023 160.916 239.876 145.709 242.772C145.492 242.813 145.275 242.868 145.059 242.924C141.339 243.876 139.651 242.928 140.189 238.636Z" fill="#72CAF2"/>
<path d="M228.284 74.8066C228.031 72.5906 226.17 72.1506 224.336 72.0066C222.571 71.8692 220.79 71.8666 219.015 71.8652C204.586 71.8572 190.154 71.8719 175.724 71.8626C165.206 71.8546 165.198 71.8412 165.19 61.0146C165.178 46.3626 164.954 31.7052 165.291 17.0612C165.427 11.1319 163.074 8.16657 157.626 6.42657C131.66 -1.86143 105.823 -2.4801 79.8724 6.60656C74.807 8.38123 72.9684 11.0999 73.0444 16.3346C73.2737 31.8706 73.143 47.4132 73.103 62.9519C73.0817 71.5092 72.7404 71.8199 63.9737 71.8572C56.4244 71.8892 48.8777 71.8626 41.3284 71.8626V71.8999C32.6724 71.8999 24.0137 71.8639 15.3577 71.9279C13.4124 71.9426 11.0137 71.7572 10.3497 74.2066C9.67371 76.6959 11.9017 77.6986 13.5804 78.6452C36.7577 91.7159 59.6284 105.491 84.7164 114.685C88.7284 116.155 92.759 117.56 96.8244 118.769L78.5097 80.7559L96.7724 74.4132L108.076 121.471C110.458 121.888 112.856 122.191 115.272 122.363L109.598 64.9892H128.931L122.312 122.452C124.708 122.343 127.126 122.084 129.567 121.644L140.912 74.4132L159.175 80.7559L140.875 118.739C151.194 115.669 161.206 111.848 171.008 107.371C189.803 98.7879 207.552 88.2466 225.574 78.2159C226.938 77.4572 228.496 76.6532 228.284 74.8066Z" fill="#ED1C24"/>
</svg>
